<svg xmlns="http://www.w3.org/2000/svg" viewBox="0 0 1081.62519 302.55957"><defs><style>.ad61a07a-5ccc-4fa6-ba63-cf2be216ea33{fill:#fff;}.e54e8853-7b35-4f3f-bc85-84793cab1f78{fill:#00f087;}</style></defs><title>Risorsa 4</title><g id="a4541506-b459-4f00-a5d3-26170d149376" data-name="Livello 2"><g id="b25e5bcc-007d-4159-9c64-468405992565" data-name="Livello 1"><path class="ad61a07a-5ccc-4fa6-ba63-cf2be216ea33" d="M303.134,152.06541a12.07111,12.07111,0,0,0-3.6505-8.38014c-2.17533-2.23345-4.45521-4.36464-6.65347-6.57625-8.1998-8.24942-16.35024-16.54819-24.58234-24.76518q-31.46123-31.40341-62.96941-62.75978c-10.74-10.72545-21.39091-21.54018-32.10528-32.2914-4.60488-4.62069-9.1752-9.28234-13.93122-13.74415-5.10955-4.79343-11.23994-4.69809-16.3756.08915-3.31669,3.09168-6.56276,6.26242-9.76509,9.47293-10.51917,10.546-20.97263,21.15773-31.51039,31.68508C90.2662,56.109,78.85524,67.33564,67.51852,78.63674Q50.94889,95.15431,34.45457,111.74737C24.24847,121.996,14.161,132.36486,3.841,142.49705a11.92316,11.92316,0,0,0,.16232,17.67783c6.37459,6.04189,12.28613,12.56946,18.56726,18.71388,3.63879,3.55958,8.07457,5.69441,13.13785,3.42591a25.2558,25.2558,0,0,0,7.12032-5.21871c14.0144-13.88322,27.90307-27.89328,41.85153-41.84319q15.04365-15.04518,30.13139-30.04626c9.23926-9.22517,18.404-18.52591,27.71547-27.67749,5.568-5.47243,11.62242-5.3966,17.22.11082q16.07357,15.81478,32.0107,31.768c8.01459,8.00887,15.92819,16.11873,23.92725,24.14323q16.52751,16.58,33.12042,33.09492,6.927,6.901,13.95252,13.70294c5.30055,5.118,11.93912,4.49571,17.10022-.38581,1.648-1.55878,3.20361-3.21521,4.80224-4.82623q7.49167-7.54968,14.982-15.10058A11.4908,11.4908,0,0,0,303.134,152.06541ZM258.058,196.017c.41571-2.97-.92308-5.64255-3.31672-7.95008-2.45152-2.36338-4.80459-4.82865-7.21393-7.23613-4.31734-4.314-8.56021-8.70725-12.9911-12.90167-4.538-4.29578-10.12015-4.45958-15.05818-.64519a37.02367,37.02367,0,0,0-3.47685,3.1315q-19.57791,19.54544-39.13034,39.11643c-5.52133,5.51888-10.97181,11.11217-16.60606,16.51355-5.34317,5.12228-11.73318,5.06661-17.0229-.02943-4.18441-4.03119-8.23475-8.20158-12.3423-12.31251-5.79918-5.804-11.569-11.63759-17.403-17.40642-4.418-4.36868-8.94649-8.62557-13.37159-12.98719-5.33272-5.25624-10.51458-10.66883-15.93585-15.8309-4.95532-4.71837-11.46625-4.65277-16.28376.07322q-10.03048,9.8399-19.83009,19.91349a12.87123,12.87123,0,0,0-2.92259,4.5908c-1.649,4.77609-.18969,8.82682,3.349,12.3391Q65.42319,221.191,82.251,238.08083c20.37351,20.36937,40.83742,40.64995,61.03336,61.19393,4.266,4.33953,12.93522,4.39135,16.86044.08423,3.05431-3.35146,6.44319-6.39649,9.65319-9.60788q23.77953-23.78974,47.54417-47.59445,18.50769-18.51567,37.03966-37.00714A11.21091,11.21091,0,0,0,258.058,196.017Z"/><path class="ad61a07a-5ccc-4fa6-ba63-cf2be216ea33" d="M303.134,152.06541a11.4908,11.4908,0,0,1-3.49157,7.97095q-7.48325,7.558-14.982,15.10058c-1.59863,1.611-3.15422,3.26745-4.80224,4.82623-5.1611,4.88152-11.79967,5.50379-17.10022.38581q-7.034-6.79176-13.95252-13.70294Q232.22056,150.1233,215.685,133.55112c-7.99906-8.0245-15.91266-16.13436-23.92725-24.14323q-15.95043-15.9391-32.0107-31.768c-5.59754-5.50742-11.65193-5.58325-17.22-.11082-9.31145,9.15158-18.47621,18.45232-27.71547,27.67749q-15.05589,15.033-30.13139,30.04626c-13.94846,13.94991-27.83713,27.96-41.85153,41.84319a25.2558,25.2558,0,0,1-7.12032,5.21871c-5.06328,2.2685-9.49906.13367-13.13785-3.42591-6.28113-6.14442-12.19267-12.672-18.56726-18.71388A11.92316,11.92316,0,0,1,3.841,142.49705C14.161,132.36486,24.24847,121.996,34.45457,111.74737q16.5092-16.578,33.064-33.11063C78.85524,67.33564,90.2662,56.109,101.59069,44.79567c10.53776-10.52735,20.99122-21.139,31.51039-31.68508,3.20233-3.21051,6.4484-6.38125,9.76509-9.47293,5.13566-4.78724,11.266-4.88258,16.3756-.08915,4.756,4.46181,9.32634,9.12346,13.93122,13.74415,10.71437,10.75122,21.36524,21.56595,32.10528,32.2914Q236.732,80.995,268.24768,112.34384c8.2321,8.217,16.38254,16.51576,24.58234,24.76518,2.19826,2.21161,4.47814,4.3428,6.65347,6.57625A12.07111,12.07111,0,0,1,303.134,152.06541Z"/><path class="e54e8853-7b35-4f3f-bc85-84793cab1f78" d="M258.058,196.017a11.21091,11.21091,0,0,1-3.67614,9.1325q-18.52659,18.49681-37.03966,37.00714-23.77955,23.78979-47.54417,47.59445c-3.21,3.21139-6.59888,6.25642-9.65319,9.60788-3.92522,4.30712-12.59443,4.2553-16.86044-.08423-20.19594-20.544-40.65985-40.82456-61.03336-61.19393q-16.86039-16.85694-33.74934-33.68524c-3.53865-3.51228-4.998-7.563-3.349-12.3391a12.87123,12.87123,0,0,1,2.92259-4.5908q9.80418-10.06515,19.83009-19.91349c4.81751-4.726,11.32844-4.79159,16.28376-.07322,5.42127,5.16207,10.60313,10.57466,15.93585,15.8309,4.4251,4.36162,8.95358,8.61851,13.37159,12.98719,5.834,5.76883,11.60382,11.60243,17.403,17.40642,4.10755,4.11093,8.15789,8.28132,12.3423,12.31251,5.28972,5.096,11.67973,5.15171,17.0229.02943,5.63425-5.40138,11.08473-10.99467,16.60606-16.51355q19.566-19.55736,39.13034-39.11643a37.02367,37.02367,0,0,1,3.47685-3.1315c4.938-3.81439,10.52022-3.65059,15.05818.64519,4.43089,4.19442,8.67376,8.58765,12.9911,12.90167,2.40934,2.40748,4.76241,4.87275,7.21393,7.23613C257.13488,190.37447,258.47367,193.04705,258.058,196.017Z"/><path class="ad61a07a-5ccc-4fa6-ba63-cf2be216ea33" d="M378.35851,196.53534v8.05237c-9.73684.22348-19.29627.04217-28.996.11526V69.25358c2.268-.71142,25.29419-.85474,29.00356-.119v47.12964c.9979-.79639,1.61847-1.20534,2.13628-1.71805,6.35035-6.28743,14.26845-8.98141,22.9228-9.52483,17.94247-1.12666,31.79363,6.22763,41.61471,21.09958,8.09647,12.26041,10.19845,25.78791,7.79681,40.1737a50.25477,50.25477,0,0,1-12.43316,26.02529c-8.54348,9.43152-19.09,14.7756-31.98977,15.11391-7.06251.18521-13.91354-.74392-20.14224-4.21026C384.90269,201.34873,381.84531,198.91438,378.35851,196.53534Zm46.41154-39.50543c-.0789-7.61194-2.05682-13.84844-7.28289-18.77832a22.3756,22.3756,0,0,0-12.8442-5.74206c-9.00938-1.1854-19.74333,2.70647-23.94359,12.47258-3.76677,8.7582-3.4468,17.43366,1.77446,25.48116,6.80237,10.48451,21.58286,11.65844,30.88732,6.54507C421.40316,172.58874,424.39,165.19,424.77005,157.02991Z"/><path class="e54e8853-7b35-4f3f-bc85-84793cab1f78" d="M780.86274,196.53534v8.05237c-9.73685.22348-19.29628.04217-28.996.11526V69.25358c2.268-.71142,25.2942-.85474,29.00356-.119v47.12964c.9979-.79639,1.61847-1.20534,2.13629-1.71805,6.35034-6.28743,14.26844-8.98141,22.92279-9.52483,17.94247-1.12666,31.79364,6.22763,41.61471,21.09958,8.09647,12.26041,10.19845,25.78791,7.79682,40.1737a50.25484,50.25484,0,0,1-12.43316,26.02529c-8.54348,9.43152-19.09,14.7756-31.98978,15.11391-7.0625.18521-13.91353-.74392-20.14224-4.21026C787.40692,201.34873,784.34953,198.91438,780.86274,196.53534Zm46.41154-39.50543c-.07891-7.61194-2.05682-13.84844-7.2829-18.77832a22.3756,22.3756,0,0,0-12.8442-5.74206c-9.00937-1.1854-19.74332,2.70647-23.94359,12.47258-3.76677,8.7582-3.4468,17.43366,1.77446,25.48116,6.80237,10.48451,21.58287,11.65844,30.88732,6.54507C823.90738,172.58874,826.89421,165.19,827.27428,157.02991Z"/><path class="e54e8853-7b35-4f3f-bc85-84793cab1f78" d="M1006.213,196.53534v8.05237c-9.73684.22348-19.29627.04217-28.996.11526V69.25358c2.268-.71142,25.2942-.85474,29.00356-.119v47.12964c.9979-.79639,1.61848-1.20534,2.13629-1.71805,6.35035-6.28743,14.26844-8.98141,22.92279-9.52483,17.94247-1.12666,31.79364,6.22763,41.61472,21.09958,8.09646,12.26041,10.19844,25.78791,7.79681,40.1737a50.25484,50.25484,0,0,1-12.43316,26.02529c-8.54348,9.43152-19.09,14.7756-31.98977,15.11391-7.06251.18521-13.91354-.74392-20.14225-4.21026C1012.75718,201.34873,1009.69979,198.91438,1006.213,196.53534Zm46.41154-39.50543c-.07891-7.61194-2.05682-13.84844-7.2829-18.77832a22.3756,22.3756,0,0,0-12.8442-5.74206c-9.00937-1.1854-19.74332,2.70647-23.94359,12.47258-3.76677,8.7582-3.4468,17.43366,1.77446,25.48116,6.80237,10.48451,21.58287,11.65844,30.88733,6.54507C1049.25764,172.58874,1052.24447,165.19,1052.62454,157.02991Z"/><path class="ad61a07a-5ccc-4fa6-ba63-cf2be216ea33" d="M516.6588,207.42363a50.83039,50.83039,0,0,1-51.14608-51.60679c.23673-28.79592,22.87887-51.1023,51.82966-50.951,28.82167.15062,51.341,22.789,51.15534,51.632A50.78365,50.78365,0,0,1,516.6588,207.42363Zm-22.336-51.19736c.67531,3.15633.89093,6.50436,2.11235,9.43289,3.61023,8.65586,10.45589,13.09034,19.75522,13.39115,8.38924.27139,15.20819-2.93415,19.806-10.19462,2.90494-4.58727,3.64684-9.70891,3.217-14.98824-.70632-8.67569-4.81106-15.18756-12.88948-18.79078-8.66445-3.86462-19.0898-1.72957-25.095,4.28454C496.57511,144.022,494.68358,149.69059,494.32283,156.22627Z"/><path class="ad61a07a-5ccc-4fa6-ba63-cf2be216ea33" d="M631.752,207.42391a51.28169,51.28169,0,1,1-.06992-102.56248c28.85.0253,51.61555,22.61759,51.56769,51.26379A50.89285,50.89285,0,0,1,631.752,207.42391Zm22.23317-47.68729c.14553-13.53512-5.15281-21.91046-13.85061-24.98738-8.92168-3.15609-17.1027-1.88783-24.15153,4.6504-4.44415,4.12219-6.44448,9.45671-6.67063,15.405-.33146,8.71848,2.54088,16.10315,10.16656,20.85566,7.38128,4.60019,15.30562,4.74352,22.96835.84812C650.60486,172.36151,653.8808,165.07217,653.98519,159.73662Z"/><path class="e54e8853-7b35-4f3f-bc85-84793cab1f78" d="M897.01631,204.534h-28.863V108.0119c2.23391-.62313,23.81368-.80331,28.70949-.19838v8.09729c.60535-.19241,1.00772-.19295,1.17142-.39089,4.74181-5.73327,11.0877-8.51242,18.18635-9.88646a40.25216,40.25216,0,0,1,21.20052,1.26465,33.01477,33.01477,0,0,1,19.90946,18.48194,48.5961,48.5961,0,0,1,3.92744,20.267c-.0799,18.66711-.02639,37.33479-.026,56.00226,0,.85169-.00008,1.70338-.00008,2.502-2.58079.6676-22.26636.89228-29.084.34289-.01391-1.10333-.0407-2.2508-.04086-3.39829q-.00417-25.23362.00111-50.46726a25.31466,25.31466,0,0,0-1.20831-8.64551,14.30276,14.30276,0,0,0-11.48729-9.87631,25.51936,25.51936,0,0,0-8.70909-.05066c-7.31458,1.24846-11.98325,6.44631-13.16262,14.20264a46.23814,46.23814,0,0,0-.50278,6.80494c-.04174,15.84553-.02187,31.69122-.02179,47.53685Z"/><path class="ad61a07a-5ccc-4fa6-ba63-cf2be216ea33" d="M728.65078,204.50194H699.81909V63.00005h28.83169Z"/></g></g></svg>