<svg xmlns="http://www.w3.org/2000/svg" viewBox="0 0 303.13399 302.55957"><defs><style>.f5c6025a-7a68-4b62-bbc6-811865cfc90c{fill:#fff;}.f650b8ce-bfe4-438b-95d2-2292d9735dac{fill:#00f087;}</style></defs><title>Risorsa 6</title><g id="be05ca04-5d7c-49ba-946d-0cbc842a681d" data-name="Livello 2"><g id="a7fe32fa-ca40-4cca-b5b5-b0d69d4df274" data-name="Livello 1"><path class="f5c6025a-7a68-4b62-bbc6-811865cfc90c" d="M303.134,152.06541a12.07111,12.07111,0,0,0-3.6505-8.38014c-2.17533-2.23345-4.45521-4.36464-6.65347-6.57625-8.1998-8.24942-16.35024-16.54819-24.58234-24.76518q-31.46123-31.40341-62.96941-62.75978c-10.74-10.72545-21.39091-21.54018-32.10528-32.2914-4.60488-4.62069-9.1752-9.28234-13.93122-13.74415-5.10955-4.79343-11.23994-4.69809-16.3756.08915-3.31669,3.09168-6.56276,6.26242-9.76509,9.47293-10.51917,10.546-20.97263,21.15773-31.51039,31.68508C90.2662,56.109,78.85524,67.33564,67.51852,78.63674Q50.94889,95.15431,34.45457,111.74737C24.24847,121.996,14.161,132.36486,3.841,142.49705a11.92316,11.92316,0,0,0,.16232,17.67783c6.37459,6.04189,12.28613,12.56946,18.56726,18.71388,3.63879,3.55958,8.07457,5.69441,13.13785,3.42591a25.2558,25.2558,0,0,0,7.12032-5.21871c14.0144-13.88322,27.90307-27.89328,41.85153-41.84319q15.04365-15.04518,30.13139-30.04626c9.23926-9.22517,18.404-18.52591,27.71547-27.67749,5.568-5.47243,11.62242-5.3966,17.22.11082q16.07357,15.81478,32.0107,31.768c8.01459,8.00887,15.92819,16.11873,23.92725,24.14323q16.52751,16.58,33.12042,33.09492,6.927,6.901,13.95252,13.70294c5.30055,5.118,11.93912,4.49571,17.10022-.38581,1.648-1.55878,3.20361-3.21521,4.80224-4.82623q7.49167-7.54968,14.982-15.10058A11.4908,11.4908,0,0,0,303.134,152.06541ZM258.058,196.017c.41571-2.97-.92308-5.64255-3.31672-7.95008-2.45152-2.36338-4.80459-4.82865-7.21393-7.23613-4.31734-4.314-8.56021-8.70725-12.9911-12.90167-4.538-4.29578-10.12015-4.45958-15.05818-.64519a37.02367,37.02367,0,0,0-3.47685,3.1315q-19.57791,19.54544-39.13034,39.11643c-5.52133,5.51888-10.97181,11.11217-16.60606,16.51355-5.34317,5.12228-11.73318,5.06661-17.0229-.02943-4.18441-4.03119-8.23475-8.20158-12.3423-12.31251-5.79918-5.804-11.569-11.63759-17.403-17.40642-4.418-4.36868-8.94649-8.62557-13.37159-12.98719-5.33272-5.25624-10.51458-10.66883-15.93585-15.8309-4.95532-4.71837-11.46625-4.65277-16.28376.07322q-10.03048,9.8399-19.83009,19.91349a12.87123,12.87123,0,0,0-2.92259,4.5908c-1.649,4.77609-.18969,8.82682,3.349,12.3391Q65.42319,221.191,82.251,238.08083c20.37351,20.36937,40.83742,40.64995,61.03336,61.19393,4.266,4.33953,12.93522,4.39135,16.86044.08423,3.05431-3.35146,6.44319-6.39649,9.65319-9.60788q23.77953-23.78974,47.54417-47.59445,18.50769-18.51567,37.03966-37.00714A11.21091,11.21091,0,0,0,258.058,196.017Z"/><path class="f5c6025a-7a68-4b62-bbc6-811865cfc90c" d="M303.134,152.06541a11.4908,11.4908,0,0,1-3.49157,7.97095q-7.48325,7.558-14.982,15.10058c-1.59863,1.611-3.15422,3.26745-4.80224,4.82623-5.1611,4.88152-11.79967,5.50379-17.10022.38581q-7.034-6.79176-13.95252-13.70294Q232.22056,150.1233,215.685,133.55112c-7.99906-8.0245-15.91266-16.13436-23.92725-24.14323q-15.95043-15.9391-32.0107-31.768c-5.59754-5.50742-11.65193-5.58325-17.22-.11082-9.31145,9.15158-18.47621,18.45232-27.71547,27.67749q-15.05589,15.033-30.13139,30.04626c-13.94846,13.94991-27.83713,27.96-41.85153,41.84319a25.2558,25.2558,0,0,1-7.12032,5.21871c-5.06328,2.2685-9.49906.13367-13.13785-3.42591-6.28113-6.14442-12.19267-12.672-18.56726-18.71388A11.92316,11.92316,0,0,1,3.841,142.49705C14.161,132.36486,24.24847,121.996,34.45457,111.74737q16.5092-16.578,33.064-33.11063C78.85524,67.33564,90.2662,56.109,101.59069,44.79567c10.53776-10.52735,20.99122-21.139,31.51039-31.68508,3.20233-3.21051,6.4484-6.38125,9.76509-9.47293,5.13566-4.78724,11.266-4.88258,16.3756-.08915,4.756,4.46181,9.32634,9.12346,13.93122,13.74415,10.71437,10.75122,21.36524,21.56595,32.10528,32.2914Q236.732,80.995,268.24768,112.34384c8.2321,8.217,16.38254,16.51576,24.58234,24.76518,2.19826,2.21161,4.47814,4.3428,6.65347,6.57625A12.07111,12.07111,0,0,1,303.134,152.06541Z"/><path class="f650b8ce-bfe4-438b-95d2-2292d9735dac" d="M258.058,196.017a11.21091,11.21091,0,0,1-3.67614,9.1325q-18.52659,18.49681-37.03966,37.00714-23.77955,23.78979-47.54417,47.59445c-3.21,3.21139-6.59888,6.25642-9.65319,9.60788-3.92522,4.30712-12.59443,4.2553-16.86044-.08423-20.19594-20.544-40.65985-40.82456-61.03336-61.19393q-16.86039-16.85694-33.74934-33.68524c-3.53865-3.51228-4.998-7.563-3.349-12.3391a12.87123,12.87123,0,0,1,2.92259-4.5908q9.80418-10.06515,19.83009-19.91349c4.81751-4.726,11.32844-4.79159,16.28376-.07322,5.42127,5.16207,10.60313,10.57466,15.93585,15.8309,4.4251,4.36162,8.95358,8.61851,13.37159,12.98719,5.834,5.76883,11.60382,11.60243,17.403,17.40642,4.10755,4.11093,8.15789,8.28132,12.3423,12.31251,5.28972,5.096,11.67973,5.15171,17.0229.02943,5.63425-5.40138,11.08473-10.99467,16.60606-16.51355q19.566-19.55736,39.13034-39.11643a37.02367,37.02367,0,0,1,3.47685-3.1315c4.938-3.81439,10.52022-3.65059,15.05818.64519,4.43089,4.19442,8.67376,8.58765,12.9911,12.90167,2.40934,2.40748,4.76241,4.87275,7.21393,7.23613C257.13488,190.37447,258.47367,193.04705,258.058,196.017Z"/></g></g></svg>