<svg xmlns="http://www.w3.org/2000/svg" viewBox="0 0 582.33779 491.2829"><defs><style>.a13c762d-94ea-4aec-8366-3372cdedca21{fill:#fff;}</style></defs><title>Risorsa 3</title><g id="ae4f248c-a7c8-4164-a0a2-7f7af7955389" data-name="Livello 2"><g id="abe07813-ba36-42b4-8aa7-1f90ac4c3c19" data-name="Livello 1"><path class="a13c762d-94ea-4aec-8366-3372cdedca21" d="M358.291,122.31459,120.5617,99.26291,4.6669,215.15771a16.04705,16.04705,0,0,0,0,22.62742l79.4788,79.05455a15.96164,15.96164,0,0,0,22.5567-.07071l67.67013-67.67013a16.04705,16.04705,0,0,1,22.62742,0l45.25483,45.25483a16.04706,16.04706,0,0,1,0,22.62742L174.65537,384.5805a15.96165,15.96165,0,0,0-.07072,22.5567l.07072.07072L253.6392,486.616a16.04706,16.04706,0,0,0,22.62742,0l115.8948-115.8948L369.10974,133.13334A12.18731,12.18731,0,0,0,358.291,122.31459Zm132.93606,278.8829L480.8326,293.36373l98.005-98.005a12.03528,12.03528,0,0,0,0-16.97056l-39.598-39.598a12.03528,12.03528,0,0,0-16.97056,0l-51.336,51.33595L459.69012,74.797A47.95218,47.95218,0,0,0,416.5566,31.6635L90.0854.05583A12.03254,12.03254,0,0,0,77.00393,10.87456h0L73.11484,50.82609A11.94285,11.94285,0,0,0,83.93357,63.90757h0L387.21166,93.2525a12.18749,12.18749,0,0,1,10.81873,10.81872l29.41567,303.34884a12.03258,12.03258,0,0,0,13.0815,10.81875h0l39.95153-3.88909a11.95458,11.95458,0,0,0,10.748-13.15223Z"/></g></g></svg>