<svg version="1.1"
      xmlns="http://www.w3.org/2000/svg"
      xmlns:xlink="http://www.w3.org/1999/xlink"  id="snapshot-81366" width="125" height="125" viewBox="0 0 125 125"><desc>This image was made on Patterninja.com</desc><defs>
<!-- image 43172 -->
<g id="transformed-43172" data-image="43172" transform="translate(71.50490243203608, 70.60688282230792) rotate(270, 25.495097567963924, 25.39311717769208)"><g><svg version="1.1" width="50.99019513592785px" height="50.78623435538416px" viewBox="0 0 50.99019513592785 50.78623435538416"><g id="original-43172"><svg xmlns="http://www.w3.org/2000/svg" viewBox="0 0 303.134 302.56" xmlns:xlink="http://www.w3.org/1999/xlink" version="1.1" preserveAspectRatio="xMidYMid meet">
  <g id="e17a1f24-cb2d-4e6f-9b96-2532e01521af" data-name="Livello 2">
    <g id="a412fa2d-8b80-4c6d-a872-fcd4770cabae" data-name="Livello 1">
      <path d="M303.134 152.065a12.071 12.071 0 0 0-3.65-8.38c-2.176-2.233-4.456-4.364-6.654-6.576-8.2-8.25-16.35-16.548-24.582-24.765q-31.462-31.404-62.97-62.76c-10.74-10.725-21.39-21.54-32.105-32.291-4.605-4.621-9.175-9.283-13.931-13.744-5.11-4.794-11.24-4.699-16.376.089a374.14 374.14 0 0 0-9.765 9.473c-10.52 10.546-20.973 21.157-31.51 31.685-11.325 11.313-22.736 22.54-34.072 33.84q-16.57 16.518-33.064 33.111c-10.207 10.249-20.294 20.618-30.614 30.75a11.923 11.923 0 0 0 .162 17.678c6.375 6.042 12.286 12.57 18.568 18.714 3.638 3.56 8.074 5.694 13.137 3.426a25.256 25.256 0 0 0 7.12-5.219c14.015-13.883 27.904-27.893 41.852-41.843q15.044-15.045 30.132-30.046c9.239-9.226 18.404-18.526 27.715-27.678 5.568-5.472 11.623-5.397 17.22.11q16.074 15.816 32.01 31.769c8.015 8.009 15.929 16.119 23.928 24.143q16.528 16.58 33.12 33.095 6.928 6.901 13.953 13.703c5.3 5.118 11.94 4.496 17.1-.386 1.648-1.559 3.204-3.215 4.802-4.826l14.982-15.1a11.49 11.49 0 0 0 3.492-7.972zm-45.076 43.952c.416-2.97-.923-5.643-3.317-7.95-2.451-2.363-4.804-4.829-7.214-7.236-4.317-4.314-8.56-8.707-12.99-12.902-4.539-4.296-10.12-4.46-15.059-.645a37.024 37.024 0 0 0-3.477 3.131q-19.578 19.546-39.13 39.117c-5.521 5.519-10.972 11.112-16.606 16.513-5.343 5.123-11.733 5.067-17.023-.029-4.184-4.031-8.235-8.202-12.342-12.313-5.8-5.804-11.57-11.637-17.403-17.406-4.418-4.369-8.947-8.626-13.372-12.987-5.333-5.256-10.515-10.669-15.936-15.831-4.955-4.718-11.466-4.653-16.284.073q-10.03 9.84-19.83 19.914a12.871 12.871 0 0 0-2.922 4.59c-1.65 4.777-.19 8.827 3.349 12.34Q65.423 221.19 82.25 238.08c20.374 20.37 40.837 40.65 61.033 61.194 4.266 4.34 12.936 4.391 16.86.084 3.055-3.351 6.444-6.396 9.654-9.608q23.78-23.79 47.544-47.594 18.508-18.516 37.04-37.007a11.21 11.21 0 0 0 3.676-9.133z" fill="rgba(0, 0, 0, 0.5)" stroke="none"/>
      <path d="M303.134 152.065a11.49 11.49 0 0 1-3.492 7.971q-7.483 7.558-14.982 15.1c-1.598 1.612-3.154 3.268-4.802 4.827-5.16 4.882-11.8 5.504-17.1.386q-7.034-6.792-13.953-13.703-16.584-16.523-33.12-33.095c-8-8.024-15.913-16.134-23.927-24.143q-15.95-15.94-32.011-31.768c-5.597-5.508-11.652-5.583-17.22-.11-9.311 9.15-18.476 18.451-27.715 27.677Q99.756 120.24 84.68 135.253c-13.948 13.95-27.837 27.96-41.851 41.843a25.256 25.256 0 0 1-7.12 5.219c-5.064 2.268-9.5.133-13.139-3.426-6.28-6.145-12.192-12.672-18.567-18.714a11.923 11.923 0 0 1-.162-17.678c10.32-10.132 20.407-20.501 30.614-30.75q16.509-16.578 33.064-33.11c11.336-11.301 22.747-22.528 34.072-33.841 10.537-10.528 20.99-21.14 31.51-31.685a374.14 374.14 0 0 1 9.765-9.473c5.136-4.788 11.266-4.883 16.376-.09 4.756 4.462 9.326 9.124 13.931 13.745 10.714 10.75 21.365 21.566 32.105 32.291q31.454 31.411 62.97 62.76c8.232 8.217 16.382 16.516 24.582 24.765 2.198 2.212 4.478 4.343 6.653 6.576a12.071 12.071 0 0 1 3.651 8.38z" fill="rgba(241, 241, 241, 0.85)" stroke="none"/>
      <path d="M258.058 196.017a11.21 11.21 0 0 1-3.676 9.133q-18.527 18.496-37.04 37.007-23.78 23.79-47.544 47.594c-3.21 3.211-6.599 6.257-9.653 9.608-3.925 4.307-12.595 4.255-16.86-.084-20.197-20.544-40.66-40.825-61.034-61.194q-16.86-16.857-33.75-33.685c-3.538-3.513-4.997-7.563-3.348-12.34a12.871 12.871 0 0 1 2.922-4.59q9.804-10.065 19.83-19.914c4.818-4.726 11.329-4.791 16.284-.073 5.421 5.162 10.603 10.575 15.936 15.83 4.425 4.362 8.954 8.62 13.372 12.988 5.834 5.769 11.603 11.602 17.403 17.406 4.107 4.111 8.157 8.282 12.342 12.313 5.29 5.096 11.68 5.152 17.023.03 5.634-5.402 11.085-10.995 16.606-16.514q19.566-19.558 39.13-39.117a37.024 37.024 0 0 1 3.477-3.131c4.938-3.814 10.52-3.65 15.058.645 4.431 4.195 8.674 8.588 12.991 12.902 2.41 2.407 4.763 4.873 7.214 7.236 2.394 2.307 3.733 4.98 3.317 7.95z" fill="rgba(241, 241, 241, 0.85)" stroke="none"/>
    </g>
  </g>
</svg>
</g></svg></g></g>
<!-- /image 43172 -->

<!-- image 85927 -->
<g id="transformed-85927" data-image="85927" transform="translate(9.504902432036076, 11.60688282230792) rotate(0, 25.495097567963924, 25.39311717769208)"><g><svg version="1.1" width="50.99019513592785px" height="50.78623435538416px" viewBox="0 0 50.99019513592785 50.78623435538416"><g id="original-85927"><svg xmlns="http://www.w3.org/2000/svg" viewBox="0 0 303.134 302.56" xmlns:xlink="http://www.w3.org/1999/xlink" version="1.1" preserveAspectRatio="xMidYMid meet">
  <g id="e17a1f24-cb2d-4e6f-9b96-2532e01521af" data-name="Livello 2">
    <g id="a412fa2d-8b80-4c6d-a872-fcd4770cabae" data-name="Livello 1">
      <path d="M303.134 152.065a12.071 12.071 0 0 0-3.65-8.38c-2.176-2.233-4.456-4.364-6.654-6.576-8.2-8.25-16.35-16.548-24.582-24.765q-31.462-31.404-62.97-62.76c-10.74-10.725-21.39-21.54-32.105-32.291-4.605-4.621-9.175-9.283-13.931-13.744-5.11-4.794-11.24-4.699-16.376.089a374.14 374.14 0 0 0-9.765 9.473c-10.52 10.546-20.973 21.157-31.51 31.685-11.325 11.313-22.736 22.54-34.072 33.84q-16.57 16.518-33.064 33.111c-10.207 10.249-20.294 20.618-30.614 30.75a11.923 11.923 0 0 0 .162 17.678c6.375 6.042 12.286 12.57 18.568 18.714 3.638 3.56 8.074 5.694 13.137 3.426a25.256 25.256 0 0 0 7.12-5.219c14.015-13.883 27.904-27.893 41.852-41.843q15.044-15.045 30.132-30.046c9.239-9.226 18.404-18.526 27.715-27.678 5.568-5.472 11.623-5.397 17.22.11q16.074 15.816 32.01 31.769c8.015 8.009 15.929 16.119 23.928 24.143q16.528 16.58 33.12 33.095 6.928 6.901 13.953 13.703c5.3 5.118 11.94 4.496 17.1-.386 1.648-1.559 3.204-3.215 4.802-4.826l14.982-15.1a11.49 11.49 0 0 0 3.492-7.972zm-45.076 43.952c.416-2.97-.923-5.643-3.317-7.95-2.451-2.363-4.804-4.829-7.214-7.236-4.317-4.314-8.56-8.707-12.99-12.902-4.539-4.296-10.12-4.46-15.059-.645a37.024 37.024 0 0 0-3.477 3.131q-19.578 19.546-39.13 39.117c-5.521 5.519-10.972 11.112-16.606 16.513-5.343 5.123-11.733 5.067-17.023-.029-4.184-4.031-8.235-8.202-12.342-12.313-5.8-5.804-11.57-11.637-17.403-17.406-4.418-4.369-8.947-8.626-13.372-12.987-5.333-5.256-10.515-10.669-15.936-15.831-4.955-4.718-11.466-4.653-16.284.073q-10.03 9.84-19.83 19.914a12.871 12.871 0 0 0-2.922 4.59c-1.65 4.777-.19 8.827 3.349 12.34Q65.423 221.19 82.25 238.08c20.374 20.37 40.837 40.65 61.033 61.194 4.266 4.34 12.936 4.391 16.86.084 3.055-3.351 6.444-6.396 9.654-9.608q23.78-23.79 47.544-47.594 18.508-18.516 37.04-37.007a11.21 11.21 0 0 0 3.676-9.133z" fill="rgba(0, 0, 0, 0.5)" stroke="none"/>
      <path d="M303.134 152.065a11.49 11.49 0 0 1-3.492 7.971q-7.483 7.558-14.982 15.1c-1.598 1.612-3.154 3.268-4.802 4.827-5.16 4.882-11.8 5.504-17.1.386q-7.034-6.792-13.953-13.703-16.584-16.523-33.12-33.095c-8-8.024-15.913-16.134-23.927-24.143q-15.95-15.94-32.011-31.768c-5.597-5.508-11.652-5.583-17.22-.11-9.311 9.15-18.476 18.451-27.715 27.677Q99.756 120.24 84.68 135.253c-13.948 13.95-27.837 27.96-41.851 41.843a25.256 25.256 0 0 1-7.12 5.219c-5.064 2.268-9.5.133-13.139-3.426-6.28-6.145-12.192-12.672-18.567-18.714a11.923 11.923 0 0 1-.162-17.678c10.32-10.132 20.407-20.501 30.614-30.75q16.509-16.578 33.064-33.11c11.336-11.301 22.747-22.528 34.072-33.841 10.537-10.528 20.99-21.14 31.51-31.685a374.14 374.14 0 0 1 9.765-9.473c5.136-4.788 11.266-4.883 16.376-.09 4.756 4.462 9.326 9.124 13.931 13.745 10.714 10.75 21.365 21.566 32.105 32.291q31.454 31.411 62.97 62.76c8.232 8.217 16.382 16.516 24.582 24.765 2.198 2.212 4.478 4.343 6.653 6.576a12.071 12.071 0 0 1 3.651 8.38z" fill="rgba(241, 241, 241, 0.85)" stroke="none"/>
      <path d="M258.058 196.017a11.21 11.21 0 0 1-3.676 9.133q-18.527 18.496-37.04 37.007-23.78 23.79-47.544 47.594c-3.21 3.211-6.599 6.257-9.653 9.608-3.925 4.307-12.595 4.255-16.86-.084-20.197-20.544-40.66-40.825-61.034-61.194q-16.86-16.857-33.75-33.685c-3.538-3.513-4.997-7.563-3.348-12.34a12.871 12.871 0 0 1 2.922-4.59q9.804-10.065 19.83-19.914c4.818-4.726 11.329-4.791 16.284-.073 5.421 5.162 10.603 10.575 15.936 15.83 4.425 4.362 8.954 8.62 13.372 12.988 5.834 5.769 11.603 11.602 17.403 17.406 4.107 4.111 8.157 8.282 12.342 12.313 5.29 5.096 11.68 5.152 17.023.03 5.634-5.402 11.085-10.995 16.606-16.514q19.566-19.558 39.13-39.117a37.024 37.024 0 0 1 3.477-3.131c4.938-3.814 10.52-3.65 15.058.645 4.431 4.195 8.674 8.588 12.991 12.902 2.41 2.407 4.763 4.873 7.214 7.236 2.394 2.307 3.733 4.98 3.317 7.95z" fill="rgba(241, 241, 241, 0.85)" stroke="none"/>
    </g>
  </g>
</svg>
</g></svg></g></g>
<!-- /image 85927 -->
</defs><rect x="0" y="0" width="125" height="125" fill="rgba(246, 246, 246, 1)"></rect><use xlink:href="#transformed-43172" transform="translate(-125, -125)"></use><use xlink:href="#transformed-43172" transform="translate(0, -125)"></use><use xlink:href="#transformed-43172" transform="translate(125, -125)"></use><use xlink:href="#transformed-43172" transform="translate(-125, 0)"></use><use xlink:href="#transformed-43172" transform="translate(0, 0)"></use><use xlink:href="#transformed-43172" transform="translate(125, 0)"></use><use xlink:href="#transformed-43172" transform="translate(-125, 125)"></use><use xlink:href="#transformed-43172" transform="translate(0, 125)"></use><use xlink:href="#transformed-43172" transform="translate(125, 125)"></use><use xlink:href="#transformed-85927" transform="translate(-125, -125)"></use><use xlink:href="#transformed-85927" transform="translate(0, -125)"></use><use xlink:href="#transformed-85927" transform="translate(125, -125)"></use><use xlink:href="#transformed-85927" transform="translate(-125, 0)"></use><use xlink:href="#transformed-85927" transform="translate(0, 0)"></use><use xlink:href="#transformed-85927" transform="translate(125, 0)"></use><use xlink:href="#transformed-85927" transform="translate(-125, 125)"></use><use xlink:href="#transformed-85927" transform="translate(0, 125)"></use><use xlink:href="#transformed-85927" transform="translate(125, 125)"></use></svg>